<?xml version="1.0" encoding="UTF-8" ?>
<svg version="1.1" width="192" height="192" xmlns="http://www.w3.org/2000/svg" shape-rendering="crispEdges">
<rect x="9" y="15" width="3" height="3" fill="#639BFF" />
<rect x="12" y="15" width="3" height="3" fill="#639BFF" />
<rect x="15" y="15" width="3" height="3" fill="#639BFF" />
<rect x="9" y="18" width="3" height="3" fill="#639BFF" />
<rect x="12" y="18" width="3" height="3" fill="#639BFF" />
<rect x="15" y="18" width="3" height="3" fill="#639BFF" />
<rect x="9" y="21" width="3" height="3" fill="#639BFF" />
<rect x="12" y="21" width="3" height="3" fill="#639BFF" />
<rect x="15" y="21" width="3" height="3" fill="#639BFF" />
<rect x="9" y="24" width="3" height="3" fill="#639BFF" />
<rect x="12" y="24" width="3" height="3" fill="#639BFF" />
<rect x="15" y="24" width="3" height="3" fill="#639BFF" />
<rect x="9" y="27" width="3" height="3" fill="#639BFF" />
<rect x="12" y="27" width="3" height="3" fill="#639BFF" />
<rect x="15" y="27" width="3" height="3" fill="#639BFF" />
<rect x="18" y="27" width="3" height="3" fill="#639BFF" />
<rect x="12" y="30" width="3" height="3" fill="#639BFF" />
<rect x="15" y="30" width="3" height="3" fill="#639BFF" />
<rect x="18" y="30" width="3" height="3" fill="#639BFF" />
<rect x="12" y="33" width="3" height="3" fill="#639BFF" />
<rect x="15" y="33" width="3" height="3" fill="#639BFF" />
<rect x="18" y="33" width="3" height="3" fill="#639BFF" />
<rect x="12" y="36" width="3" height="3" fill="#639BFF" />
<rect x="15" y="36" width="3" height="3" fill="#639BFF" />
<rect x="18" y="36" width="3" height="3" fill="#639BFF" />
<rect x="12" y="39" width="3" height="3" fill="#639BFF" />
<rect x="15" y="39" width="3" height="3" fill="#639BFF" />
<rect x="18" y="39" width="3" height="3" fill="#639BFF" />
<rect x="12" y="42" width="3" height="3" fill="#639BFF" />
<rect x="15" y="42" width="3" height="3" fill="#639BFF" />
<rect x="18" y="42" width="3" height="3" fill="#639BFF" />
<rect x="12" y="45" width="3" height="3" fill="#639BFF" />
<rect x="15" y="45" width="3" height="3" fill="#639BFF" />
<rect x="18" y="45" width="3" height="3" fill="#639BFF" />
<rect x="120" y="45" width="3" height="3" fill="#639BFF" />
<rect x="123" y="45" width="3" height="3" fill="#639BFF" />
<rect x="126" y="45" width="3" height="3" fill="#639BFF" />
<rect x="171" y="45" width="3" height="3" fill="#639BFF" />
<rect x="174" y="45" width="3" height="3" fill="#639BFF" />
<rect x="12" y="48" width="3" height="3" fill="#639BFF" />
<rect x="15" y="48" width="3" height="3" fill="#639BFF" />
<rect x="18" y="48" width="3" height="3" fill="#639BFF" />
<rect x="120" y="48" width="3" height="3" fill="#639BFF" />
<rect x="123" y="48" width="3" height="3" fill="#639BFF" />
<rect x="126" y="48" width="3" height="3" fill="#639BFF" />
<rect x="171" y="48" width="3" height="3" fill="#639BFF" />
<rect x="174" y="48" width="3" height="3" fill="#639BFF" />
<rect x="12" y="51" width="3" height="3" fill="#639BFF" />
<rect x="15" y="51" width="3" height="3" fill="#639BFF" />
<rect x="18" y="51" width="3" height="3" fill="#639BFF" />
<rect x="120" y="51" width="3" height="3" fill="#639BFF" />
<rect x="123" y="51" width="3" height="3" fill="#639BFF" />
<rect x="126" y="51" width="3" height="3" fill="#639BFF" />
<rect x="12" y="54" width="3" height="3" fill="#639BFF" />
<rect x="15" y="54" width="3" height="3" fill="#639BFF" />
<rect x="18" y="54" width="3" height="3" fill="#639BFF" />
<rect x="12" y="57" width="3" height="3" fill="#639BFF" />
<rect x="15" y="57" width="3" height="3" fill="#639BFF" />
<rect x="18" y="57" width="3" height="3" fill="#639BFF" />
<rect x="12" y="60" width="3" height="3" fill="#639BFF" />
<rect x="15" y="60" width="3" height="3" fill="#639BFF" />
<rect x="18" y="60" width="3" height="3" fill="#639BFF" />
<rect x="12" y="63" width="3" height="3" fill="#639BFF" />
<rect x="15" y="63" width="3" height="3" fill="#639BFF" />
<rect x="18" y="63" width="3" height="3" fill="#639BFF" />
<rect x="12" y="66" width="3" height="3" fill="#639BFF" />
<rect x="15" y="66" width="3" height="3" fill="#639BFF" />
<rect x="18" y="66" width="3" height="3" fill="#639BFF" />
<rect x="12" y="69" width="3" height="3" fill="#639BFF" />
<rect x="15" y="69" width="3" height="3" fill="#639BFF" />
<rect x="18" y="69" width="3" height="3" fill="#639BFF" />
<rect x="21" y="69" width="3" height="3" fill="#639BFF" />
<rect x="24" y="69" width="3" height="3" fill="#639BFF" />
<rect x="12" y="72" width="3" height="3" fill="#639BFF" />
<rect x="15" y="72" width="3" height="3" fill="#639BFF" />
<rect x="18" y="72" width="3" height="3" fill="#639BFF" />
<rect x="21" y="72" width="3" height="3" fill="#639BFF" />
<rect x="24" y="72" width="3" height="3" fill="#639BFF" />
<rect x="18" y="75" width="3" height="3" fill="#639BFF" />
<rect x="21" y="75" width="3" height="3" fill="#639BFF" />
<rect x="24" y="75" width="3" height="3" fill="#639BFF" />
<rect x="123" y="75" width="3" height="3" fill="#639BFF" />
<rect x="126" y="75" width="3" height="3" fill="#639BFF" />
<rect x="129" y="75" width="3" height="3" fill="#639BFF" />
<rect x="171" y="75" width="3" height="3" fill="#639BFF" />
<rect x="174" y="75" width="3" height="3" fill="#639BFF" />
<rect x="177" y="75" width="3" height="3" fill="#639BFF" />
<rect x="18" y="78" width="3" height="3" fill="#639BFF" />
<rect x="21" y="78" width="3" height="3" fill="#639BFF" />
<rect x="24" y="78" width="3" height="3" fill="#639BFF" />
<rect x="123" y="78" width="3" height="3" fill="#639BFF" />
<rect x="126" y="78" width="3" height="3" fill="#639BFF" />
<rect x="129" y="78" width="3" height="3" fill="#639BFF" />
<rect x="171" y="78" width="3" height="3" fill="#639BFF" />
<rect x="174" y="78" width="3" height="3" fill="#639BFF" />
<rect x="177" y="78" width="3" height="3" fill="#639BFF" />
<rect x="18" y="81" width="3" height="3" fill="#639BFF" />
<rect x="21" y="81" width="3" height="3" fill="#639BFF" />
<rect x="24" y="81" width="3" height="3" fill="#639BFF" />
<rect x="120" y="81" width="3" height="3" fill="#639BFF" />
<rect x="123" y="81" width="3" height="3" fill="#639BFF" />
<rect x="126" y="81" width="3" height="3" fill="#639BFF" />
<rect x="129" y="81" width="3" height="3" fill="#639BFF" />
<rect x="171" y="81" width="3" height="3" fill="#639BFF" />
<rect x="174" y="81" width="3" height="3" fill="#639BFF" />
<rect x="177" y="81" width="3" height="3" fill="#639BFF" />
<rect x="18" y="84" width="3" height="3" fill="#639BFF" />
<rect x="21" y="84" width="3" height="3" fill="#639BFF" />
<rect x="24" y="84" width="3" height="3" fill="#639BFF" />
<rect x="120" y="84" width="3" height="3" fill="#639BFF" />
<rect x="123" y="84" width="3" height="3" fill="#639BFF" />
<rect x="126" y="84" width="3" height="3" fill="#639BFF" />
<rect x="129" y="84" width="3" height="3" fill="#639BFF" />
<rect x="171" y="84" width="3" height="3" fill="#639BFF" />
<rect x="174" y="84" width="3" height="3" fill="#639BFF" />
<rect x="177" y="84" width="3" height="3" fill="#639BFF" />
<rect x="18" y="87" width="3" height="3" fill="#639BFF" />
<rect x="21" y="87" width="3" height="3" fill="#639BFF" />
<rect x="24" y="87" width="3" height="3" fill="#639BFF" />
<rect x="120" y="87" width="3" height="3" fill="#639BFF" />
<rect x="123" y="87" width="3" height="3" fill="#639BFF" />
<rect x="126" y="87" width="3" height="3" fill="#639BFF" />
<rect x="129" y="87" width="3" height="3" fill="#639BFF" />
<rect x="171" y="87" width="3" height="3" fill="#639BFF" />
<rect x="174" y="87" width="3" height="3" fill="#639BFF" />
<rect x="177" y="87" width="3" height="3" fill="#639BFF" />
<rect x="18" y="90" width="3" height="3" fill="#639BFF" />
<rect x="21" y="90" width="3" height="3" fill="#639BFF" />
<rect x="24" y="90" width="3" height="3" fill="#639BFF" />
<rect x="120" y="90" width="3" height="3" fill="#639BFF" />
<rect x="123" y="90" width="3" height="3" fill="#639BFF" />
<rect x="126" y="90" width="3" height="3" fill="#639BFF" />
<rect x="129" y="90" width="3" height="3" fill="#639BFF" />
<rect x="171" y="90" width="3" height="3" fill="#639BFF" />
<rect x="174" y="90" width="3" height="3" fill="#639BFF" />
<rect x="177" y="90" width="3" height="3" fill="#639BFF" />
<rect x="18" y="93" width="3" height="3" fill="#639BFF" />
<rect x="21" y="93" width="3" height="3" fill="#639BFF" />
<rect x="24" y="93" width="3" height="3" fill="#639BFF" />
<rect x="120" y="93" width="3" height="3" fill="#639BFF" />
<rect x="123" y="93" width="3" height="3" fill="#639BFF" />
<rect x="126" y="93" width="3" height="3" fill="#639BFF" />
<rect x="129" y="93" width="3" height="3" fill="#639BFF" />
<rect x="171" y="93" width="3" height="3" fill="#639BFF" />
<rect x="174" y="93" width="3" height="3" fill="#639BFF" />
<rect x="177" y="93" width="3" height="3" fill="#639BFF" />
<rect x="18" y="96" width="3" height="3" fill="#639BFF" />
<rect x="21" y="96" width="3" height="3" fill="#639BFF" />
<rect x="24" y="96" width="3" height="3" fill="#639BFF" />
<rect x="120" y="96" width="3" height="3" fill="#639BFF" />
<rect x="123" y="96" width="3" height="3" fill="#639BFF" />
<rect x="126" y="96" width="3" height="3" fill="#639BFF" />
<rect x="129" y="96" width="3" height="3" fill="#639BFF" />
<rect x="171" y="96" width="3" height="3" fill="#639BFF" />
<rect x="174" y="96" width="3" height="3" fill="#639BFF" />
<rect x="177" y="96" width="3" height="3" fill="#639BFF" />
<rect x="18" y="99" width="3" height="3" fill="#639BFF" />
<rect x="21" y="99" width="3" height="3" fill="#639BFF" />
<rect x="24" y="99" width="3" height="3" fill="#639BFF" />
<rect x="120" y="99" width="3" height="3" fill="#639BFF" />
<rect x="123" y="99" width="3" height="3" fill="#639BFF" />
<rect x="126" y="99" width="3" height="3" fill="#639BFF" />
<rect x="171" y="99" width="3" height="3" fill="#639BFF" />
<rect x="174" y="99" width="3" height="3" fill="#639BFF" />
<rect x="177" y="99" width="3" height="3" fill="#639BFF" />
<rect x="18" y="102" width="3" height="3" fill="#639BFF" />
<rect x="21" y="102" width="3" height="3" fill="#639BFF" />
<rect x="24" y="102" width="3" height="3" fill="#639BFF" />
<rect x="120" y="102" width="3" height="3" fill="#639BFF" />
<rect x="123" y="102" width="3" height="3" fill="#639BFF" />
<rect x="126" y="102" width="3" height="3" fill="#639BFF" />
<rect x="171" y="102" width="3" height="3" fill="#639BFF" />
<rect x="174" y="102" width="3" height="3" fill="#639BFF" />
<rect x="177" y="102" width="3" height="3" fill="#639BFF" />
<rect x="18" y="105" width="3" height="3" fill="#639BFF" />
<rect x="21" y="105" width="3" height="3" fill="#639BFF" />
<rect x="24" y="105" width="3" height="3" fill="#639BFF" />
<rect x="120" y="105" width="3" height="3" fill="#639BFF" />
<rect x="123" y="105" width="3" height="3" fill="#639BFF" />
<rect x="126" y="105" width="3" height="3" fill="#639BFF" />
<rect x="171" y="105" width="3" height="3" fill="#639BFF" />
<rect x="174" y="105" width="3" height="3" fill="#639BFF" />
<rect x="177" y="105" width="3" height="3" fill="#639BFF" />
<rect x="18" y="108" width="3" height="3" fill="#639BFF" />
<rect x="21" y="108" width="3" height="3" fill="#639BFF" />
<rect x="24" y="108" width="3" height="3" fill="#639BFF" />
<rect x="120" y="108" width="3" height="3" fill="#639BFF" />
<rect x="123" y="108" width="3" height="3" fill="#639BFF" />
<rect x="126" y="108" width="3" height="3" fill="#639BFF" />
<rect x="165" y="108" width="3" height="3" fill="#639BFF" />
<rect x="168" y="108" width="3" height="3" fill="#639BFF" />
<rect x="171" y="108" width="3" height="3" fill="#639BFF" />
<rect x="174" y="108" width="3" height="3" fill="#639BFF" />
<rect x="177" y="108" width="3" height="3" fill="#639BFF" />
<rect x="18" y="111" width="3" height="3" fill="#639BFF" />
<rect x="21" y="111" width="3" height="3" fill="#639BFF" />
<rect x="24" y="111" width="3" height="3" fill="#639BFF" />
<rect x="120" y="111" width="3" height="3" fill="#639BFF" />
<rect x="123" y="111" width="3" height="3" fill="#639BFF" />
<rect x="126" y="111" width="3" height="3" fill="#639BFF" />
<rect x="165" y="111" width="3" height="3" fill="#639BFF" />
<rect x="168" y="111" width="3" height="3" fill="#639BFF" />
<rect x="171" y="111" width="3" height="3" fill="#639BFF" />
<rect x="18" y="114" width="3" height="3" fill="#639BFF" />
<rect x="21" y="114" width="3" height="3" fill="#639BFF" />
<rect x="24" y="114" width="3" height="3" fill="#639BFF" />
<rect x="120" y="114" width="3" height="3" fill="#639BFF" />
<rect x="123" y="114" width="3" height="3" fill="#639BFF" />
<rect x="126" y="114" width="3" height="3" fill="#639BFF" />
<rect x="165" y="114" width="3" height="3" fill="#639BFF" />
<rect x="168" y="114" width="3" height="3" fill="#639BFF" />
<rect x="171" y="114" width="3" height="3" fill="#639BFF" />
<rect x="18" y="117" width="3" height="3" fill="#639BFF" />
<rect x="21" y="117" width="3" height="3" fill="#639BFF" />
<rect x="24" y="117" width="3" height="3" fill="#639BFF" />
<rect x="120" y="117" width="3" height="3" fill="#639BFF" />
<rect x="123" y="117" width="3" height="3" fill="#639BFF" />
<rect x="126" y="117" width="3" height="3" fill="#639BFF" />
<rect x="165" y="117" width="3" height="3" fill="#639BFF" />
<rect x="168" y="117" width="3" height="3" fill="#639BFF" />
<rect x="171" y="117" width="3" height="3" fill="#639BFF" />
<rect x="18" y="120" width="3" height="3" fill="#639BFF" />
<rect x="21" y="120" width="3" height="3" fill="#639BFF" />
<rect x="24" y="120" width="3" height="3" fill="#639BFF" />
<rect x="120" y="120" width="3" height="3" fill="#639BFF" />
<rect x="123" y="120" width="3" height="3" fill="#639BFF" />
<rect x="126" y="120" width="3" height="3" fill="#639BFF" />
<rect x="159" y="120" width="3" height="3" fill="#639BFF" />
<rect x="162" y="120" width="3" height="3" fill="#639BFF" />
<rect x="165" y="120" width="3" height="3" fill="#639BFF" />
<rect x="168" y="120" width="3" height="3" fill="#639BFF" />
<rect x="171" y="120" width="3" height="3" fill="#639BFF" />
<rect x="18" y="123" width="3" height="3" fill="#639BFF" />
<rect x="21" y="123" width="3" height="3" fill="#639BFF" />
<rect x="24" y="123" width="3" height="3" fill="#639BFF" />
<rect x="120" y="123" width="3" height="3" fill="#639BFF" />
<rect x="123" y="123" width="3" height="3" fill="#639BFF" />
<rect x="126" y="123" width="3" height="3" fill="#639BFF" />
<rect x="159" y="123" width="3" height="3" fill="#639BFF" />
<rect x="162" y="123" width="3" height="3" fill="#639BFF" />
<rect x="165" y="123" width="3" height="3" fill="#639BFF" />
<rect x="168" y="123" width="3" height="3" fill="#639BFF" />
<rect x="171" y="123" width="3" height="3" fill="#639BFF" />
<rect x="18" y="126" width="3" height="3" fill="#639BFF" />
<rect x="21" y="126" width="3" height="3" fill="#639BFF" />
<rect x="24" y="126" width="3" height="3" fill="#639BFF" />
<rect x="120" y="126" width="3" height="3" fill="#639BFF" />
<rect x="123" y="126" width="3" height="3" fill="#639BFF" />
<rect x="126" y="126" width="3" height="3" fill="#639BFF" />
<rect x="159" y="126" width="3" height="3" fill="#639BFF" />
<rect x="162" y="126" width="3" height="3" fill="#639BFF" />
<rect x="165" y="126" width="3" height="3" fill="#639BFF" />
<rect x="168" y="126" width="3" height="3" fill="#639BFF" />
<rect x="18" y="129" width="3" height="3" fill="#639BFF" />
<rect x="21" y="129" width="3" height="3" fill="#639BFF" />
<rect x="24" y="129" width="3" height="3" fill="#639BFF" />
<rect x="120" y="129" width="3" height="3" fill="#639BFF" />
<rect x="123" y="129" width="3" height="3" fill="#639BFF" />
<rect x="126" y="129" width="3" height="3" fill="#639BFF" />
<rect x="159" y="129" width="3" height="3" fill="#639BFF" />
<rect x="162" y="129" width="3" height="3" fill="#639BFF" />
<rect x="165" y="129" width="3" height="3" fill="#639BFF" />
<rect x="168" y="129" width="3" height="3" fill="#639BFF" />
<rect x="18" y="132" width="3" height="3" fill="#639BFF" />
<rect x="21" y="132" width="3" height="3" fill="#639BFF" />
<rect x="24" y="132" width="3" height="3" fill="#639BFF" />
<rect x="120" y="132" width="3" height="3" fill="#639BFF" />
<rect x="123" y="132" width="3" height="3" fill="#639BFF" />
<rect x="126" y="132" width="3" height="3" fill="#639BFF" />
<rect x="159" y="132" width="3" height="3" fill="#639BFF" />
<rect x="162" y="132" width="3" height="3" fill="#639BFF" />
<rect x="165" y="132" width="3" height="3" fill="#639BFF" />
<rect x="168" y="132" width="3" height="3" fill="#639BFF" />
<rect x="18" y="135" width="3" height="3" fill="#639BFF" />
<rect x="21" y="135" width="3" height="3" fill="#639BFF" />
<rect x="24" y="135" width="3" height="3" fill="#639BFF" />
<rect x="120" y="135" width="3" height="3" fill="#639BFF" />
<rect x="123" y="135" width="3" height="3" fill="#639BFF" />
<rect x="126" y="135" width="3" height="3" fill="#639BFF" />
<rect x="159" y="135" width="3" height="3" fill="#639BFF" />
<rect x="162" y="135" width="3" height="3" fill="#639BFF" />
<rect x="165" y="135" width="3" height="3" fill="#639BFF" />
<rect x="168" y="135" width="3" height="3" fill="#639BFF" />
<rect x="18" y="138" width="3" height="3" fill="#639BFF" />
<rect x="21" y="138" width="3" height="3" fill="#639BFF" />
<rect x="24" y="138" width="3" height="3" fill="#639BFF" />
<rect x="120" y="138" width="3" height="3" fill="#639BFF" />
<rect x="123" y="138" width="3" height="3" fill="#639BFF" />
<rect x="126" y="138" width="3" height="3" fill="#639BFF" />
<rect x="156" y="138" width="3" height="3" fill="#639BFF" />
<rect x="159" y="138" width="3" height="3" fill="#639BFF" />
<rect x="162" y="138" width="3" height="3" fill="#639BFF" />
<rect x="165" y="138" width="3" height="3" fill="#639BFF" />
<rect x="168" y="138" width="3" height="3" fill="#639BFF" />
<rect x="18" y="141" width="3" height="3" fill="#639BFF" />
<rect x="21" y="141" width="3" height="3" fill="#639BFF" />
<rect x="24" y="141" width="3" height="3" fill="#639BFF" />
<rect x="114" y="141" width="3" height="3" fill="#639BFF" />
<rect x="117" y="141" width="3" height="3" fill="#639BFF" />
<rect x="120" y="141" width="3" height="3" fill="#639BFF" />
<rect x="123" y="141" width="3" height="3" fill="#639BFF" />
<rect x="126" y="141" width="3" height="3" fill="#639BFF" />
<rect x="129" y="141" width="3" height="3" fill="#639BFF" />
<rect x="156" y="141" width="3" height="3" fill="#639BFF" />
<rect x="159" y="141" width="3" height="3" fill="#639BFF" />
<rect x="162" y="141" width="3" height="3" fill="#639BFF" />
<rect x="18" y="144" width="3" height="3" fill="#639BFF" />
<rect x="21" y="144" width="3" height="3" fill="#639BFF" />
<rect x="24" y="144" width="3" height="3" fill="#639BFF" />
<rect x="114" y="144" width="3" height="3" fill="#639BFF" />
<rect x="117" y="144" width="3" height="3" fill="#639BFF" />
<rect x="120" y="144" width="3" height="3" fill="#639BFF" />
<rect x="123" y="144" width="3" height="3" fill="#639BFF" />
<rect x="126" y="144" width="3" height="3" fill="#639BFF" />
<rect x="129" y="144" width="3" height="3" fill="#639BFF" />
<rect x="156" y="144" width="3" height="3" fill="#639BFF" />
<rect x="159" y="144" width="3" height="3" fill="#639BFF" />
<rect x="162" y="144" width="3" height="3" fill="#639BFF" />
<rect x="18" y="147" width="3" height="3" fill="#639BFF" />
<rect x="21" y="147" width="3" height="3" fill="#639BFF" />
<rect x="24" y="147" width="3" height="3" fill="#639BFF" />
<rect x="114" y="147" width="3" height="3" fill="#639BFF" />
<rect x="117" y="147" width="3" height="3" fill="#639BFF" />
<rect x="120" y="147" width="3" height="3" fill="#639BFF" />
<rect x="123" y="147" width="3" height="3" fill="#639BFF" />
<rect x="126" y="147" width="3" height="3" fill="#639BFF" />
<rect x="129" y="147" width="3" height="3" fill="#639BFF" />
<rect x="147" y="147" width="3" height="3" fill="#639BFF" />
<rect x="150" y="147" width="3" height="3" fill="#639BFF" />
<rect x="153" y="147" width="3" height="3" fill="#639BFF" />
<rect x="156" y="147" width="3" height="3" fill="#639BFF" />
<rect x="159" y="147" width="3" height="3" fill="#639BFF" />
<rect x="162" y="147" width="3" height="3" fill="#639BFF" />
<rect x="18" y="150" width="3" height="3" fill="#639BFF" />
<rect x="21" y="150" width="3" height="3" fill="#639BFF" />
<rect x="24" y="150" width="3" height="3" fill="#639BFF" />
<rect x="27" y="150" width="3" height="3" fill="#639BFF" />
<rect x="99" y="150" width="3" height="3" fill="#639BFF" />
<rect x="102" y="150" width="3" height="3" fill="#639BFF" />
<rect x="105" y="150" width="3" height="3" fill="#639BFF" />
<rect x="108" y="150" width="3" height="3" fill="#639BFF" />
<rect x="111" y="150" width="3" height="3" fill="#639BFF" />
<rect x="114" y="150" width="3" height="3" fill="#639BFF" />
<rect x="117" y="150" width="3" height="3" fill="#639BFF" />
<rect x="120" y="150" width="3" height="3" fill="#639BFF" />
<rect x="123" y="150" width="3" height="3" fill="#639BFF" />
<rect x="126" y="150" width="3" height="3" fill="#639BFF" />
<rect x="129" y="150" width="3" height="3" fill="#639BFF" />
<rect x="132" y="150" width="3" height="3" fill="#639BFF" />
<rect x="135" y="150" width="3" height="3" fill="#639BFF" />
<rect x="138" y="150" width="3" height="3" fill="#639BFF" />
<rect x="141" y="150" width="3" height="3" fill="#639BFF" />
<rect x="144" y="150" width="3" height="3" fill="#639BFF" />
<rect x="147" y="150" width="3" height="3" fill="#639BFF" />
<rect x="150" y="150" width="3" height="3" fill="#639BFF" />
<rect x="153" y="150" width="3" height="3" fill="#639BFF" />
<rect x="156" y="150" width="3" height="3" fill="#639BFF" />
<rect x="18" y="153" width="3" height="3" fill="#639BFF" />
<rect x="21" y="153" width="3" height="3" fill="#639BFF" />
<rect x="24" y="153" width="3" height="3" fill="#639BFF" />
<rect x="27" y="153" width="3" height="3" fill="#639BFF" />
<rect x="99" y="153" width="3" height="3" fill="#639BFF" />
<rect x="102" y="153" width="3" height="3" fill="#639BFF" />
<rect x="105" y="153" width="3" height="3" fill="#639BFF" />
<rect x="108" y="153" width="3" height="3" fill="#639BFF" />
<rect x="111" y="153" width="3" height="3" fill="#639BFF" />
<rect x="114" y="153" width="3" height="3" fill="#639BFF" />
<rect x="117" y="153" width="3" height="3" fill="#639BFF" />
<rect x="120" y="153" width="3" height="3" fill="#639BFF" />
<rect x="123" y="153" width="3" height="3" fill="#639BFF" />
<rect x="126" y="153" width="3" height="3" fill="#639BFF" />
<rect x="129" y="153" width="3" height="3" fill="#639BFF" />
<rect x="132" y="153" width="3" height="3" fill="#639BFF" />
<rect x="135" y="153" width="3" height="3" fill="#639BFF" />
<rect x="138" y="153" width="3" height="3" fill="#639BFF" />
<rect x="141" y="153" width="3" height="3" fill="#639BFF" />
<rect x="144" y="153" width="3" height="3" fill="#639BFF" />
<rect x="147" y="153" width="3" height="3" fill="#639BFF" />
<rect x="150" y="153" width="3" height="3" fill="#639BFF" />
<rect x="153" y="153" width="3" height="3" fill="#639BFF" />
<rect x="156" y="153" width="3" height="3" fill="#639BFF" />
<rect x="21" y="156" width="3" height="3" fill="#639BFF" />
<rect x="24" y="156" width="3" height="3" fill="#639BFF" />
<rect x="27" y="156" width="3" height="3" fill="#639BFF" />
<rect x="30" y="156" width="3" height="3" fill="#639BFF" />
<rect x="33" y="156" width="3" height="3" fill="#639BFF" />
<rect x="36" y="156" width="3" height="3" fill="#639BFF" />
<rect x="72" y="156" width="3" height="3" fill="#639BFF" />
<rect x="75" y="156" width="3" height="3" fill="#639BFF" />
<rect x="78" y="156" width="3" height="3" fill="#639BFF" />
<rect x="81" y="156" width="3" height="3" fill="#639BFF" />
<rect x="84" y="156" width="3" height="3" fill="#639BFF" />
<rect x="87" y="156" width="3" height="3" fill="#639BFF" />
<rect x="90" y="156" width="3" height="3" fill="#639BFF" />
<rect x="93" y="156" width="3" height="3" fill="#639BFF" />
<rect x="96" y="156" width="3" height="3" fill="#639BFF" />
<rect x="99" y="156" width="3" height="3" fill="#639BFF" />
<rect x="102" y="156" width="3" height="3" fill="#639BFF" />
<rect x="105" y="156" width="3" height="3" fill="#639BFF" />
<rect x="108" y="156" width="3" height="3" fill="#639BFF" />
<rect x="111" y="156" width="3" height="3" fill="#639BFF" />
<rect x="114" y="156" width="3" height="3" fill="#639BFF" />
<rect x="117" y="156" width="3" height="3" fill="#639BFF" />
<rect x="129" y="156" width="3" height="3" fill="#639BFF" />
<rect x="132" y="156" width="3" height="3" fill="#639BFF" />
<rect x="135" y="156" width="3" height="3" fill="#639BFF" />
<rect x="138" y="156" width="3" height="3" fill="#639BFF" />
<rect x="141" y="156" width="3" height="3" fill="#639BFF" />
<rect x="144" y="156" width="3" height="3" fill="#639BFF" />
<rect x="147" y="156" width="3" height="3" fill="#639BFF" />
<rect x="27" y="159" width="3" height="3" fill="#639BFF" />
<rect x="30" y="159" width="3" height="3" fill="#639BFF" />
<rect x="33" y="159" width="3" height="3" fill="#639BFF" />
<rect x="36" y="159" width="3" height="3" fill="#639BFF" />
<rect x="39" y="159" width="3" height="3" fill="#639BFF" />
<rect x="42" y="159" width="3" height="3" fill="#639BFF" />
<rect x="45" y="159" width="3" height="3" fill="#639BFF" />
<rect x="48" y="159" width="3" height="3" fill="#639BFF" />
<rect x="51" y="159" width="3" height="3" fill="#639BFF" />
<rect x="54" y="159" width="3" height="3" fill="#639BFF" />
<rect x="57" y="159" width="3" height="3" fill="#639BFF" />
<rect x="60" y="159" width="3" height="3" fill="#639BFF" />
<rect x="63" y="159" width="3" height="3" fill="#639BFF" />
<rect x="66" y="159" width="3" height="3" fill="#639BFF" />
<rect x="69" y="159" width="3" height="3" fill="#639BFF" />
<rect x="72" y="159" width="3" height="3" fill="#639BFF" />
<rect x="75" y="159" width="3" height="3" fill="#639BFF" />
<rect x="78" y="159" width="3" height="3" fill="#639BFF" />
<rect x="81" y="159" width="3" height="3" fill="#639BFF" />
<rect x="84" y="159" width="3" height="3" fill="#639BFF" />
<rect x="87" y="159" width="3" height="3" fill="#639BFF" />
<rect x="90" y="159" width="3" height="3" fill="#639BFF" />
<rect x="93" y="159" width="3" height="3" fill="#639BFF" />
<rect x="96" y="159" width="3" height="3" fill="#639BFF" />
<rect x="99" y="159" width="3" height="3" fill="#639BFF" />
<rect x="102" y="159" width="3" height="3" fill="#639BFF" />
<rect x="36" y="162" width="3" height="3" fill="#639BFF" />
<rect x="39" y="162" width="3" height="3" fill="#639BFF" />
<rect x="42" y="162" width="3" height="3" fill="#639BFF" />
<rect x="45" y="162" width="3" height="3" fill="#639BFF" />
<rect x="48" y="162" width="3" height="3" fill="#639BFF" />
<rect x="51" y="162" width="3" height="3" fill="#639BFF" />
<rect x="54" y="162" width="3" height="3" fill="#639BFF" />
<rect x="57" y="162" width="3" height="3" fill="#639BFF" />
<rect x="60" y="162" width="3" height="3" fill="#639BFF" />
<rect x="63" y="162" width="3" height="3" fill="#639BFF" />
<rect x="66" y="162" width="3" height="3" fill="#639BFF" />
<rect x="69" y="162" width="3" height="3" fill="#639BFF" />
<rect x="72" y="162" width="3" height="3" fill="#639BFF" />
<rect x="75" y="162" width="3" height="3" fill="#639BFF" />
<rect x="36" y="165" width="3" height="3" fill="#639BFF" />
<rect x="39" y="165" width="3" height="3" fill="#639BFF" />
<rect x="42" y="165" width="3" height="3" fill="#639BFF" />
<rect x="45" y="165" width="3" height="3" fill="#639BFF" />
<rect x="48" y="165" width="3" height="3" fill="#639BFF" />
<rect x="51" y="165" width="3" height="3" fill="#639BFF" />
<rect x="54" y="165" width="3" height="3" fill="#639BFF" />
<rect x="57" y="165" width="3" height="3" fill="#639BFF" />
<rect x="60" y="165" width="3" height="3" fill="#639BFF" />
<rect x="63" y="165" width="3" height="3" fill="#639BFF" />
<rect x="66" y="165" width="3" height="3" fill="#639BFF" />
<rect x="69" y="165" width="3" height="3" fill="#639BFF" />
<rect x="72" y="165" width="3" height="3" fill="#639BFF" />
<rect x="75" y="165" width="3" height="3" fill="#639BFF" />
</svg>